<svg width="105" height="19" viewBox="0 0 105 19" fill="none" xmlns="http://www.w3.org/2000/svg">
<g clip-path="url(#clip0_47_631)">
<path d="M3.6 0.01L0 3.53V15.12L3.6 18.63L3.61 18.64H20.64V15.37H7.1L7.09 15.36L5.21 13.53V5.12L7.09 3.28L7.1 3.27H20.64V0H3.61L3.6 0.01Z" fill="#005EB8"/>
<path d="M59.63 15.36H57.32L52.16 0H46.92L53.08 18.64H63.87L70.03 0H64.79L59.63 15.36Z" fill="#005EB8"/>
<path d="M97.87 0H87.07L80.92 18.64H86.15L91.31 3.28H93.63L98.78 18.64H104.02L97.87 0Z" fill="#005EB8"/>
<path d="M78.09 0H72.86V18.64H78.09V0Z" fill="#005EB8"/>
<path d="M38.89 13.69L37.16 15.37H30.41L28.68 13.69V0H23.47V14.52L27.7 18.64H39.87L44.09 14.52V0H38.89V13.69Z" fill="#005EB8"/>
</g>
<defs>
<clipPath id="clip0_47_631">
<rect width="104.02" height="18.64" fill="white"/>
</clipPath>
</defs>
</svg>
