<?xml version="1.0" encoding="UTF-8"?>
<svg id="map2" xmlns="http://www.w3.org/2000/svg" version="1.1" viewBox="0 0 1819 940">
  <!-- Generator: Adobe Illustrator 29.8.2, SVG Export Plug-In . SVG Version: 2.1.1 Build 3)  -->
  <defs>
    <style>
      .st0 {
        fill: #34c659;
      }

      .st1 {
        fill: #fccb02;
      }

      .st2 {
        fill: #f8463e;
      }

      .st3, .st4 {
        opacity: .6;
      }

      .st4 {
        fill: none;
        stroke: #ececec;
        stroke-dasharray: 0 26;
        stroke-linecap: round;
        stroke-linejoin: round;
        stroke-width: 5px;
      }

      .st5 {
        fill: #a4a4a4;
      }

      .st6 {
        fill: #ececec;
      }
    </style>
  </defs>
  <path class="st5" d="M727.21,398.3c-1.85,0-3.51-1.29-3.91-3.17-.46-2.16.92-4.28,3.08-4.74l61.12-12.96,35.73-8.33,79.51-20.9c.07-.02.15-.04.22-.05l33.15-6.7,48.37-12.28,19.33-5.95c.09-.03.19-.05.29-.08l42.58-9.71,24.11-5.56,38.32-12.28c1.49-.47,3.12-.04,4.18,1.11l38.68,42.4,25.96,22.25c.13.11.25.23.37.36l25.13,27.94,11.79-4.02c.28-.1.58-.16.88-.19l18.72-1.96,18.99-2.51c2.18-.29,4.2,1.25,4.49,3.44.29,2.19-1.25,4.2-3.44,4.49l-19.05,2.52s-.07,0-.11.01l-18.32,1.91-13.86,4.73c-1.51.52-3.2.08-4.27-1.11l-26.72-29.71-25.95-22.24c-.12-.11-.24-.22-.35-.34l-37.12-40.69-36.03,11.54c-.11.03-.21.06-.32.09l-24.28,5.6-42.45,9.68-19.28,5.93c-.06.02-.13.04-.19.05l-48.56,12.33c-.06.02-.13.03-.19.04l-33.13,6.7-79.45,20.89s-.07.02-.11.03l-35.86,8.36-61.2,12.98c-.28.06-.56.09-.83.09Z"/>
  <g>
    <path class="st0" d="M876.6,466.15c-.05-.08-.1-.17-.15-.24l-30.91-46.08-8.33-14.87-8.1,1.9,9.54,17.02c.05.09.11.18.17.27l30.92,46.09,2.34,4.09,8.12-1.91-3.59-6.28Z"/>
    <path class="st1" d="M821.46,376.87l-1.41-3.53c-.73-1.83-2.69-2.86-4.62-2.41l-27.92,6.51-61.12,12.96c-2.16.46-3.54,2.58-3.08,4.74s2.58,3.54,4.74,3.08l61.2-12.98,24.66-5.74.23.58c.06.16.14.32.22.47l14.74,26.31,8.1-1.9-15.74-28.09Z"/>
    <path class="st0" d="M1360.84,553.57l-43.48-45.22-45.91-48.15-33.21-36.94c-.1-.11-.21-.22-.33-.33l-6.51-5.75-9.55,2.24,10.6,9.35,33.09,36.81s.05.06.08.09l45.96,48.2,39.04,40.6-33.72,10.74-64.22,22.03-120.01,40.07-90.77,30.63c-.08.03-.16.06-.24.09l-38.55,15.83-29-52.18c-.06-.11-.13-.22-.2-.32l-27.97-40.65-44.36-70.83-9.33-16.33-8.12,1.91,10.54,18.46s.05.09.08.14l44.45,70.97s.06.1.09.14l27.91,40.56,30.63,55.12c.72,1.3,2.08,2.06,3.5,2.06.51,0,1.02-.1,1.52-.3l41.72-17.13,90.64-30.59,120.03-40.07,64.16-22.01,39.76-12.67c1.32-.42,2.32-1.49,2.66-2.83.34-1.34-.04-2.76-.99-3.76Z"/>
    <polygon class="st0" points="880.19 472.43 872.06 474.34 884.14 495.47 892.26 493.56 880.19 472.43"/>
    <path class="st2" d="M1218.96,406.21l-9.99-9.99,8.4-2.87,18.32-1.91s.07,0,.11-.01l19.05-2.52c2.19-.29,3.73-2.3,3.44-4.49-.29-2.19-2.31-3.73-4.49-3.44l-19,2.51-18.71,1.96c-.3.03-.59.1-.88.19l-14.29,4.88c-1.22.42-2.17,1.4-2.54,2.64-.37,1.24-.12,2.58.67,3.6l2.8,3.62c.1.13.22.26.34.38l11.21,11.21c.06.06.12.12.18.17l8.28,7.31,9.55-2.24-12.44-10.98Z"/>
  </g>
  <polyline class="st4" points="727.21 394.3 788.33 381.34 816.33 374.82 817.84 378.59 842.12 421.92 873.13 468.13 898.15 511.95 942.61 582.92 970.62 623.64 1001.35 678.92 1043.18 661.74 1133.95 631.11 1253.95 591.04 1318.2 569 1357.96 556.34 1314.47 511.11 1268.52 462.92 1235.27 425.94 1216.22 409.13 1205.02 397.92 1202.22 394.3 1216.5 389.43 1235.27 387.46 1254.33 384.94"/>
  <g class="st3">
    <path class="st6" d="M996.5,675.34c-.67-1.21-.24-2.73.97-3.4h0c1.2-.67,2.73-.23,3.4.97h0c.67,1.21.23,2.73-.97,3.4h0c-.39.21-.8.32-1.22.32h0c-.87,0-1.73-.47-2.18-1.29ZM1018.01,672.07c-.52-1.27.09-2.73,1.36-3.26h0c1.28-.52,2.74.09,3.27,1.36h0c.52,1.28-.09,2.74-1.37,3.27h0c-.31.12-.63.18-.94.18h0c-.99,0-1.92-.58-2.32-1.55ZM1042.04,662.12c-.45-1.3.26-2.72,1.56-3.16h0c1.31-.45,2.73.26,3.17,1.56h0c.45,1.31-.26,2.73-1.57,3.17h0c-.26.09-.53.14-.8.14h0c-1.04,0-2.01-.66-2.36-1.71ZM1066.67,653.81c-.44-1.31.26-2.73,1.57-3.17h0c1.31-.44,2.73.26,3.17,1.57h0c.44,1.31-.26,2.73-1.57,3.17h0c-.27.09-.53.13-.8.13h0c-1.04,0-2.02-.66-2.37-1.7ZM983.87,652.62c-.67-1.21-.24-2.73.97-3.41h0c1.2-.66,2.73-.23,3.4.98h0c.67,1.2.23,2.73-.97,3.4h0c-.39.21-.8.31-1.22.31h0c-.87,0-1.73-.46-2.18-1.28ZM1091.31,645.5c-.45-1.31.26-2.73,1.56-3.17h0c1.31-.44,2.73.26,3.17,1.57h0c.45,1.31-.26,2.72-1.56,3.17h0c-.27.09-.54.13-.8.13h0c-1.05,0-2.02-.66-2.37-1.7ZM1115.94,637.19c-.44-1.31.26-2.73,1.57-3.17h0c1.31-.44,2.73.26,3.17,1.56h0c.44,1.31-.26,2.73-1.57,3.17h0c-.27.09-.54.14-.8.14h0c-1.05,0-2.02-.66-2.37-1.7ZM971.24,629.89c-.67-1.21-.24-2.73.97-3.4h0c1.2-.67,2.73-.24,3.4.97h0c.67,1.21.23,2.73-.97,3.4h0c-.39.21-.8.31-1.21.31h0c-.88,0-1.74-.46-2.19-1.28ZM1140.58,628.89c-.44-1.31.27-2.72,1.58-3.16h0c1.31-.44,2.73.27,3.16,1.58h0c.44,1.31-.27,2.73-1.57,3.16h0c-.27.09-.53.13-.8.13h0c-1.04,0-2.02-.66-2.37-1.71ZM1165.24,620.66c-.43-1.31.27-2.73,1.58-3.16h0c1.31-.44,2.73.27,3.17,1.57h0c.43,1.32-.27,2.73-1.58,3.17h0c-.26.09-.53.13-.8.13h0c-1.04,0-2.02-.66-2.37-1.71ZM1189.91,612.43c-.44-1.31.27-2.73,1.58-3.17h0c1.3-.43,2.72.27,3.16,1.58h0c.44,1.31-.27,2.73-1.58,3.17h0c-.26.08-.53.13-.79.13h0c-1.05,0-2.02-.67-2.37-1.71ZM957.09,608.38c-.78-1.13-.49-2.69.64-3.47h0c1.14-.79,2.7-.5,3.48.64h0c.78,1.14.5,2.69-.64,3.47h0c-.43.3-.93.44-1.42.44h0c-.79,0-1.57-.37-2.06-1.08ZM1214.57,604.19c-.44-1.31.27-2.72,1.58-3.16h0c1.31-.44,2.72.27,3.16,1.58h0c.44,1.31-.27,2.73-1.58,3.16h0c-.26.09-.53.13-.79.13h0c-1.05,0-2.02-.66-2.37-1.71ZM1239.23,595.96c-.44-1.31.27-2.73,1.58-3.16h0c1.31-.44,2.73.27,3.16,1.58h0c.44,1.31-.27,2.72-1.58,3.16h0c-.26.09-.53.13-.79.13h0c-1.04,0-2.02-.66-2.37-1.71ZM1263.87,587.64c-.45-1.3.24-2.72,1.55-3.17h0c1.31-.45,2.73.25,3.17,1.55h0c.45,1.31-.24,2.73-1.55,3.18h0c-.27.09-.54.13-.81.13h0c-1.04,0-2.01-.65-2.36-1.69ZM942.35,586.96c-.78-1.14-.49-2.69.65-3.47h0c1.13-.79,2.69-.5,3.47.64h0c.79,1.14.5,2.69-.64,3.47h0c-.43.3-.93.44-1.41.44h0c-.8,0-1.58-.37-2.07-1.08ZM1288.46,579.21c-.45-1.31.25-2.73,1.55-3.18h0c1.31-.44,2.73.25,3.18,1.56h0c.44,1.3-.25,2.72-1.55,3.17h0c-.28.09-.55.14-.82.14h0c-1.04,0-2.01-.65-2.36-1.69ZM1313.05,570.77c-.44-1.3.25-2.73,1.56-3.17h0c1.3-.45,2.72.24,3.17,1.55h0c.45,1.3-.25,2.73-1.55,3.17h0c-.27.1-.54.14-.81.14h0c-1.04,0-2.01-.65-2.37-1.69ZM928.38,564.91c-.73-1.17-.38-2.71.79-3.44h0c1.17-.73,2.71-.38,3.45.79h0c.73,1.17.37,2.71-.8,3.45h0c-.41.25-.87.38-1.32.38h0c-.83,0-1.65-.42-2.12-1.18ZM1337.79,562.77c-.42-1.32.31-2.72,1.62-3.15h0c1.32-.41,2.72.31,3.14,1.63h0c.42,1.31-.31,2.72-1.62,3.14h0c-.25.08-.51.12-.76.12h0c-1.06,0-2.04-.68-2.38-1.74ZM1351.07,552.79c-.95-1-.92-2.58.07-3.54h0c1-.95,2.58-.92,3.54.07h0c.95,1,.92,2.58-.07,3.54h0c-.49.46-1.11.69-1.73.69h0c-.66,0-1.32-.25-1.81-.76ZM914.58,542.88c-.73-1.17-.38-2.72.79-3.45h0c1.17-.73,2.71-.38,3.45.79h0c.73,1.17.37,2.72-.8,3.45h0c-.41.26-.87.38-1.32.38h0c-.83,0-1.65-.41-2.12-1.17ZM1333.05,534.04c-.95-.99-.92-2.57.07-3.53h0c1-.96,2.58-.93,3.54.07h0c.95,1,.92,2.58-.07,3.53h0c-.49.47-1.11.7-1.73.7h0c-.66,0-1.32-.25-1.81-.77ZM900.78,520.84c-.73-1.17-.38-2.71.79-3.44h0c1.17-.74,2.71-.38,3.45.79h0c.73,1.17.37,2.71-.8,3.45h0c-.41.25-.87.38-1.32.38h0c-.83,0-1.65-.42-2.12-1.18ZM1315.03,515.3c-.95-.99-.92-2.57.07-3.53h0c1-.96,2.58-.93,3.54.07h0c.95.99.92,2.58-.07,3.53h0c-.49.47-1.11.7-1.73.7h0c-.66,0-1.32-.26-1.81-.77ZM887.52,498.37c-.69-1.2-.27-2.73.93-3.41h0c1.2-.69,2.72-.27,3.41.93h0c.69,1.2.27,2.72-.93,3.41h0c-.39.22-.82.33-1.24.33h0c-.87,0-1.71-.46-2.17-1.26ZM1297.07,496.49c-.95-1-.91-2.58.09-3.54h0c1-.95,2.58-.91,3.53.09h0c.95,1,.92,2.58-.08,3.53h0c-.49.46-1.11.69-1.73.69h0c-.66,0-1.32-.26-1.81-.77ZM1279.13,477.67c-.95-1-.91-2.58.09-3.53h0c.99-.96,2.58-.92,3.53.08h0c.95,1,.92,2.58-.08,3.54h0c-.49.46-1.11.69-1.73.69h0c-.66,0-1.32-.26-1.81-.78ZM874.62,475.79c-.68-1.2-.27-2.73.93-3.41h0c1.2-.69,2.73-.27,3.41.93h0c.69,1.2.27,2.73-.93,3.41h0c-.39.22-.82.33-1.24.33h0c-.86,0-1.71-.45-2.17-1.26ZM1261.31,458.64c-.92-1.03-.84-2.61.19-3.53h0c1.02-.92,2.61-.84,3.53.19h0c.92,1.03.84,2.61-.19,3.53h0c-.48.43-1.07.64-1.67.64h0c-.68,0-1.37-.28-1.86-.83ZM860.68,454.07c-.77-1.15-.46-2.7.69-3.47h0c1.14-.77,2.7-.46,3.46.69h0c.77,1.14.47,2.7-.68,3.47h0c-.43.28-.91.42-1.39.42h0c-.8,0-1.6-.39-2.08-1.11ZM1243.93,439.3c-.92-1.02-.84-2.6.19-3.53h0c1.03-.92,2.61-.83,3.53.19h0c.92,1.03.84,2.61-.19,3.53h0c-.48.43-1.07.65-1.67.65h0c-.68,0-1.37-.29-1.86-.84ZM846.2,432.48c-.77-1.15-.47-2.7.68-3.47h0c1.15-.77,2.7-.46,3.47.69h0c.77,1.14.46,2.7-.68,3.46h0c-.43.29-.92.43-1.39.43h0c-.81,0-1.6-.39-2.08-1.11ZM1225.92,421.02c-1.04-.92-1.14-2.5-.22-3.53h0c.91-1.04,2.49-1.14,3.52-.22h0c1.04.91,1.14,2.49.23,3.53h0c-.5.56-1.19.84-1.88.84h0c-.59,0-1.18-.2-1.65-.62ZM832.63,410.09c-.68-1.2-.25-2.73.96-3.4h0c1.2-.68,2.73-.25,3.4.96h0c.67,1.2.25,2.72-.96,3.4h0c-.39.22-.81.32-1.22.32h0c-.87,0-1.72-.46-2.18-1.28ZM1206.77,403.21c-.97-.97-.97-2.55,0-3.53h0c.98-.98,2.56-.98,3.54,0h0c.97.98.97,2.56,0,3.53h0c-.49.49-1.13.74-1.77.74h0c-.64,0-1.28-.25-1.77-.74ZM724.77,394.82c-.29-1.35.57-2.68,1.92-2.96h0c1.35-.29,2.68.57,2.97,1.92h0c.28,1.35-.58,2.68-1.93,2.97h0c-.17.04-.35.06-.52.06h0c-1.16,0-2.19-.81-2.44-1.99ZM1215.36,389.55c-.15-1.38.85-2.61,2.22-2.75h0c1.38-.14,2.61.85,2.75,2.23h0c.14,1.37-.85,2.6-2.23,2.74h0c-.09.01-.17.02-.26.02h0c-1.26,0-2.35-.96-2.48-2.24ZM750.2,389.43c-.29-1.35.58-2.68,1.93-2.96h0c1.35-.29,2.68.57,2.96,1.92h0c.29,1.35-.57,2.68-1.92,2.97h0c-.18.03-.35.05-.53.05h0c-1.15,0-2.19-.8-2.44-1.98ZM1241.2,386.68c-.18-1.37.78-2.62,2.15-2.8h0c1.36-.18,2.62.78,2.8,2.15h0c.18,1.36-.78,2.62-2.15,2.8h0c-.11.02-.22.02-.33.02h0c-1.23,0-2.31-.91-2.47-2.17ZM819.92,387.41c-.68-1.2-.25-2.73.96-3.4h0c1.2-.68,2.73-.25,3.4.96h0c.68,1.2.25,2.72-.96,3.4h0c-.38.22-.8.32-1.22.32h0c-.87,0-1.72-.46-2.18-1.28ZM775.64,384.04c-.29-1.35.57-2.68,1.92-2.97h0c1.35-.28,2.68.58,2.97,1.93h0c.28,1.35-.58,2.68-1.93,2.96h0c-.18.04-.35.06-.52.06h0c-1.16,0-2.19-.81-2.44-1.98ZM801.01,378.39c-.31-1.34.53-2.69,1.87-3h0c1.35-.31,2.69.52,3,1.87h0c.32,1.34-.52,2.69-1.86,3h0c-.19.04-.39.06-.57.06h0c-1.14,0-2.17-.78-2.44-1.93Z"/>
  </g>
</svg>